<?xml version="1.0" encoding="utf-8"?>
<!-- Svg Vector Icons : http://www.onlinewebfonts.com/icon -->
<!DOCTYPE svg PUBLIC "-//W3C//DTD SVG 1.1//EN" "http://www.w3.org/Graphics/SVG/1.1/DTD/svg11.dtd">
<svg version="1.1" xmlns="http://www.w3.org/2000/svg" xmlns:xlink="http://www.w3.org/1999/xlink" x="0px" y="0px" viewBox="0 0 1000 1000" enable-background="new 0 0 1000 1000" xml:space="preserve">
<metadata> Svg Vector Icons : http://www.onlinewebfonts.com/icon </metadata>
<g><g transform="translate(0.000000,511.000000) scale(0.100000,-0.100000)"><path d="M403.5,4978.1c-104-72-104-80-104-1028c0-726,6-892,28-938c56-106,76-112,420-122l322-10l14-158c68-754,658-1286,1626-1466c250-46,862-46,1160,0c432,66,876,194,1286,366c422,180,608,228,872,228c622,0,1060-450,1060-1090c0-230-34-370-144-578c-84-160-296-386-422-450c-454-232-1974-326-4256-260c-830,24-1014,12-1286-74c-446-140-740-482-842-978c-60-286-46-710,28-940c162-496,574-842,1140-962c114-24,554-28,2766-28h2628v-330c0-380,18-452,124-500c78-36,2150-450,2250-450c50,0,86,16,128,58l58,58v362v362h220c314,0,420,56,420,220c0,164-106,220-420,220h-220v210v210h240c170,0,258,8,298,28c108,56,138,228,54,326c-48,56-54,56-316,66l-266,10l-10,360c-6,198-18,374-26,392c-10,18-48,50-86,70l-68,38l-1096-218c-602-120-1122-230-1158-246c-108-50-126-118-126-494v-332h-2592c-2310,0-2606,4-2734,32c-460,104-766,400-834,812c-30,172-16,494,28,654c96,350,318,554,678,624c56,10,738,12,1660,4c1600-12,2060,0,2694,66c518,54,970,162,1170,278c302,178,596,582,702,970c50,182,50,638,0,820c-82,304-270,598-500,782c-482,390-1100,432-1824,126c-714-300-1152-406-1768-422c-568-14-948,62-1298,260c-346,196-580,558-582,900v74h390c236,0,406,8,436,22c114,52,114,54,114,1038c0,978,0,986-110,1036c-38,18-300,24-966,24C567.5,5010.1,443.5,5006.1,403.5,4978.1z"/></g></g>
</svg>